<mxfile host="65bd71144e">
    <diagram id="5jDeOrUf6yHSYXdfLvs1" name="Страница 1">
        <mxGraphModel dx="1208" dy="708" grid="1" gridSize="10" guides="1" tooltips="1" connect="1" arrows="1" fold="1" page="1" pageScale="1" pageWidth="827" pageHeight="1169" math="0" shadow="0">
            <root>
                <mxCell id="0"/>
                <mxCell id="1" parent="0"/>
                <mxCell id="2" value="Joomla site" style="swimlane;whiteSpace=wrap;html=1;fillColor=#1ba1e2;fontColor=#ffffff;strokeColor=#006EAF;" vertex="1" parent="1">
                    <mxGeometry x="100" y="60" width="200" height="200" as="geometry"/>
                </mxCell>
                <UserObject label="помощь" placeholders="1" name="Variable" id="5">
                    <mxCell style="text;html=1;strokeColor=none;fillColor=none;align=center;verticalAlign=middle;whiteSpace=wrap;overflow=hidden;" vertex="1" parent="2">
                        <mxGeometry x="120" y="170" width="80" height="20" as="geometry"/>
                    </mxCell>
                </UserObject>
                <mxCell id="6" value="&lt;h1&gt;Heading&lt;/h1&gt;&lt;p&gt;Lorem ipsum dolor sit amet, consectetur adipisicing elit, sed do eiusmod tempor incididunt ut labore et dolore magna aliqua.&lt;/p&gt;" style="text;html=1;strokeColor=none;fillColor=none;spacing=5;spacingTop=-20;whiteSpace=wrap;overflow=hidden;rounded=0;" vertex="1" parent="2">
                    <mxGeometry y="30" width="200" height="160" as="geometry"/>
                </mxCell>
                <mxCell id="3" value="страница помощи" style="swimlane;whiteSpace=wrap;html=1;fillColor=#a20025;fontColor=#ffffff;strokeColor=#6F0000;" vertex="1" parent="1">
                    <mxGeometry x="380" y="60" width="200" height="200" as="geometry"/>
                </mxCell>
                <UserObject label="Здраствуйте, можете мне помочь? ..." placeholders="1" name="Variable" id="10">
                    <mxCell style="text;html=1;strokeColor=#2D7600;fillColor=#60a917;align=center;verticalAlign=middle;whiteSpace=wrap;overflow=hidden;fontColor=#ffffff;rounded=1;" vertex="1" parent="3">
                        <mxGeometry x="120" y="40" width="70" height="50" as="geometry"/>
                    </mxCell>
                </UserObject>
                <UserObject label="Здраствуйте, чем я вам могу помочь?" placeholders="1" name="Variable" id="11">
                    <mxCell style="text;html=1;strokeColor=#005700;fillColor=#008a00;align=center;verticalAlign=middle;whiteSpace=wrap;overflow=hidden;fontColor=#ffffff;rounded=1;glass=0;shadow=0;" vertex="1" parent="3">
                        <mxGeometry y="90" width="80" height="50" as="geometry"/>
                    </mxCell>
                </UserObject>
                <mxCell id="12" value="" style="rounded=1;whiteSpace=wrap;html=1;fillColor=#0050ef;fontColor=#ffffff;strokeColor=#001DBC;" vertex="1" parent="3">
                    <mxGeometry y="160" width="200" height="40" as="geometry"/>
                </mxCell>
                <UserObject label="Введите сообщение&amp;nbsp;" placeholders="1" name="Variable" id="15">
                    <mxCell style="text;html=1;strokeColor=none;fillColor=none;align=center;verticalAlign=middle;whiteSpace=wrap;overflow=hidden;" vertex="1" parent="3">
                        <mxGeometry x="10" y="170" width="136" height="20" as="geometry"/>
                    </mxCell>
                </UserObject>
                <mxCell id="16" value="" style="shape=singleArrow;whiteSpace=wrap;html=1;" vertex="1" parent="3">
                    <mxGeometry x="160" y="173.75" width="30" height="12.5" as="geometry"/>
                </mxCell>
                <mxCell id="9" value="" style="endArrow=classic;html=1;exitX=0.888;exitY=1.01;exitDx=0;exitDy=0;exitPerimeter=0;entryX=0;entryY=0;entryDx=0;entryDy=0;" edge="1" parent="1" source="6" target="3">
                    <mxGeometry width="50" height="50" relative="1" as="geometry">
                        <mxPoint x="340" y="210" as="sourcePoint"/>
                        <mxPoint x="390" y="160" as="targetPoint"/>
                    </mxGeometry>
                </mxCell>
                <mxCell id="13" value="" style="shape=actor;whiteSpace=wrap;html=1;" vertex="1" parent="1">
                    <mxGeometry x="320" y="20" width="40" height="60" as="geometry"/>
                </mxCell>
                <mxCell id="21" value="" style="endArrow=classic;html=1;fontSize=19;exitX=1;exitY=0.5;exitDx=0;exitDy=0;entryX=0.25;entryY=0;entryDx=0;entryDy=0;" edge="1" parent="1" source="10" target="30">
                    <mxGeometry relative="1" as="geometry">
                        <mxPoint x="350" y="200" as="sourcePoint"/>
                        <mxPoint x="720" y="380" as="targetPoint"/>
                    </mxGeometry>
                </mxCell>
                <mxCell id="22" value="json" style="edgeLabel;resizable=0;html=1;align=center;verticalAlign=middle;rounded=1;shadow=0;glass=0;sketch=0;fontSize=19;" connectable="0" vertex="1" parent="21">
                    <mxGeometry relative="1" as="geometry"/>
                </mxCell>
                <mxCell id="23" value="Source" style="edgeLabel;resizable=0;html=1;align=left;verticalAlign=bottom;rounded=1;shadow=0;glass=0;sketch=0;fontSize=19;" connectable="0" vertex="1" parent="21">
                    <mxGeometry x="-1" relative="1" as="geometry"/>
                </mxCell>
                <mxCell id="24" value="Target" style="edgeLabel;resizable=0;html=1;align=right;verticalAlign=bottom;rounded=1;shadow=0;glass=0;sketch=0;fontSize=19;" connectable="0" vertex="1" parent="21">
                    <mxGeometry x="1" relative="1" as="geometry">
                        <mxPoint y="-10" as="offset"/>
                    </mxGeometry>
                </mxCell>
                <mxCell id="25" value="&lt;ol&gt;&lt;li&gt;meesage&lt;/li&gt;&lt;li&gt;user_id&lt;/li&gt;&lt;/ol&gt;" style="text;strokeColor=none;fillColor=none;html=1;whiteSpace=wrap;verticalAlign=middle;overflow=hidden;rounded=1;shadow=0;glass=0;sketch=0;fontSize=19;" vertex="1" parent="1">
                    <mxGeometry x="700" y="240" width="150" height="80" as="geometry"/>
                </mxCell>
                <mxCell id="30" value="Python code" style="swimlane;whiteSpace=wrap;html=1;rounded=1;shadow=0;glass=0;sketch=0;fontSize=19;" vertex="1" parent="1">
                    <mxGeometry x="630" y="460" width="460" height="336" as="geometry"/>
                </mxCell>
                <UserObject label="&lt;font style=&quot;font-size: 25px;&quot;&gt;API&lt;/font&gt;" placeholders="1" name="Variable" id="61">
                    <mxCell style="text;html=1;strokeColor=none;fillColor=none;align=center;verticalAlign=middle;whiteSpace=wrap;overflow=hidden;rounded=1;shadow=0;glass=0;sketch=0;fontSize=19;" vertex="1" parent="1">
                        <mxGeometry x="530" y="290" width="88" height="50" as="geometry"/>
                    </mxCell>
                </UserObject>
                <mxCell id="62" value="" style="shape=datastore;whiteSpace=wrap;html=1;rounded=1;shadow=0;glass=0;sketch=0;fontSize=25;" vertex="1" parent="1">
                    <mxGeometry x="1260" y="480" width="70" height="86" as="geometry"/>
                </mxCell>
                <mxCell id="63" value="" style="shape=flexArrow;endArrow=classic;startArrow=classic;html=1;fontSize=25;entryX=0;entryY=0.5;entryDx=0;entryDy=0;exitX=1;exitY=0.5;exitDx=0;exitDy=0;" edge="1" parent="1" source="30" target="62">
                    <mxGeometry width="100" height="100" relative="1" as="geometry">
                        <mxPoint x="1030" y="520" as="sourcePoint"/>
                        <mxPoint x="1130" y="420" as="targetPoint"/>
                    </mxGeometry>
                </mxCell>
                <UserObject label="DB" placeholders="1" name="Variable" id="64">
                    <mxCell style="text;html=1;strokeColor=none;fillColor=none;align=center;verticalAlign=middle;whiteSpace=wrap;overflow=hidden;rounded=1;shadow=0;glass=0;sketch=0;fontSize=25;" vertex="1" parent="1">
                        <mxGeometry x="1255" y="434" width="80" height="46" as="geometry"/>
                    </mxCell>
                </UserObject>
                <mxCell id="65" value="" style="endArrow=classic;html=1;fontSize=25;exitX=0;exitY=0;exitDx=0;exitDy=0;entryX=0;entryY=0.5;entryDx=0;entryDy=0;" edge="1" parent="1" source="30" target="3">
                    <mxGeometry relative="1" as="geometry">
                        <mxPoint x="500" y="440" as="sourcePoint"/>
                        <mxPoint x="480" y="390" as="targetPoint"/>
                    </mxGeometry>
                </mxCell>
                <mxCell id="66" value="&lt;font style=&quot;font-size: 17px;&quot;&gt;json&lt;/font&gt;" style="edgeLabel;resizable=0;html=1;align=center;verticalAlign=middle;rounded=1;shadow=0;glass=0;sketch=0;fontSize=25;" connectable="0" vertex="1" parent="65">
                    <mxGeometry relative="1" as="geometry"/>
                </mxCell>
                <mxCell id="67" value="&lt;font style=&quot;font-size: 17px;&quot;&gt;Source&lt;/font&gt;" style="edgeLabel;resizable=0;html=1;align=left;verticalAlign=bottom;rounded=1;shadow=0;glass=0;sketch=0;fontSize=25;" connectable="0" vertex="1" parent="65">
                    <mxGeometry x="-1" relative="1" as="geometry"/>
                </mxCell>
                <mxCell id="68" value="&lt;font style=&quot;font-size: 19px;&quot;&gt;Target&lt;/font&gt;" style="edgeLabel;resizable=0;html=1;align=right;verticalAlign=bottom;rounded=1;shadow=0;glass=0;sketch=0;fontSize=25;" connectable="0" vertex="1" parent="65">
                    <mxGeometry x="1" relative="1" as="geometry"/>
                </mxCell>
                <mxCell id="69" value="&lt;ol&gt;&lt;li&gt;answer&lt;/li&gt;&lt;li&gt;user_id&lt;/li&gt;&lt;/ol&gt;" style="text;strokeColor=none;fillColor=none;html=1;whiteSpace=wrap;verticalAlign=middle;overflow=hidden;rounded=1;shadow=0;glass=0;sketch=0;fontSize=19;" vertex="1" parent="1">
                    <mxGeometry x="360" y="275" width="150" height="80" as="geometry"/>
                </mxCell>
            </root>
        </mxGraphModel>
    </diagram>
</mxfile>